<svg xmlns="http://www.w3.org/2000/svg" id="prefix__Group_59" width="300.422" height="204.434" data-name="Group 59" viewBox="0 0 300.422 204.434">
    <defs>
        <linearGradient id="prefix__linear-gradient" x1=".38" x2=".529" y1="-.006" y2=".923" gradientUnits="objectBoundingBox">
            <stop offset="0" stop-color="#eee"/>
            <stop offset=".215" stop-color="#b1b1ca"/>
            <stop offset=".824" stop-color="#9a8cb4"/>
            <stop offset="1" stop-color="#9789b1"/>
        </linearGradient>
        <style>
            .prefix__cls-1{fill:url(#prefix__linear-gradient)}
        </style>
    </defs>
    <path id="prefix__Path_218" d="M356.629 349.712c2.036-7.638 6.981-14.361 10.711-21.476s6.263-15.391 3.188-22.749c-5.792-13.862-28.682-18.694-31.417-33.282-1.431-7.638 3.459-14.931 5.784-22.393 4.951-15.894-3.054-34.277-18.752-43.056-13.74-7.684-31.415-8.1-45.158-15.779-12.114-6.768-19.63-18.256-28.685-28.1s-21.91-18.9-36.119-17.438c-16.419 1.691-26.6 16.068-36.314 27.967a180.78 180.78 0 0 1-58.3 46.426c-10.286 5.211-21.255 9.62-30.135 16.583-22.656 17.763-26.189 50.926-9.7 73.434 9.984 13.626 26.152 23.887 31.968 39.307z" class="prefix__cls-1" data-name="Path 218" transform="translate(-71.48 -145.279)"/>
    <path id="prefix__Path_219" d="M135.668 150.3c-6.339 3.064-19.6 11.218-16.766 24.814 0 0 3.038 8.026 11.1.4 6.651-6.295 17.3-17.252 13.459-23.415-1.508-2.423-5.067-3.118-7.793-1.799z" class="prefix__cls-1" data-name="Path 219" transform="translate(-31.237 -141.546)"/>
    <path id="prefix__Path_220" d="M189.239 172.707a4.226 4.226 0 0 1 1.184-7.269 25.323 25.323 0 0 1 24.968 2.227c13.846 9.193-14.628 14.545-26.152 5.042z" class="prefix__cls-1" data-name="Path 220" transform="translate(27.92 -129.99)"/>
</svg>
